TITLE:   ZERO_102_NFLX_CUT1_20200918 ESTRAZIONE M74 AAF 
FCM: NON-DROP FRAME
000001  B059_C005_07298FILIPPO2                 V     C        01:26:03:19 01:26:06:19 01:00:00:00 01:00:03:00
*FROM CLIP NAME:  204A/3-1 M 
*ASC_SOP (1.0032 0.9968 1.0225)(0.0000 0.0000 0.0000)(1.0059 0.9997 0.9862) 
*ASC_SAT 1.0000
000002  A074_C002_0729HJ                 V     C        01:05:06:06 01:05:08:10 01:00:03:00 01:00:05:04 
*FROM CLIP NAME:  204A/1-2 CAM A 
*ASC_SOP (1.0032 0.9968 1.0225)(0.0000 0.0000 0.0000)(1.0059 0.9997 0.9862) 
*ASC_SAT 1.0000
000003  B083_C021_0811ND                 V     C        03:20:16:02 03:20:18:11 01:00:05:04 01:00:07:13 
*FROM CLIP NAME:  103A/5-2 50FPS 
*ASC_SOP (1.1065 1.0579 1.0223)(-0.0248 -0.0340 -0.0180)(0.8700 0.9069 0.9231) 
*ASC_SAT 1.0000
000004  B083_C021_0811ND                 V     C        03:20:50:20 03:20:53:04 01:00:07:13 01:00:09:22 
*FROM CLIP NAME:  103A/5-2 50FPS 
*ASC_SOP (1.1065 1.0579 1.0223)(-0.0248 -0.0340 -0.0180)(0.8700 0.9069 0.9231) 
*ASC_SAT 1.0000
000005  A078_C005_0730T3                 V     C        04:30:53:22 04:30:55:16 01:00:09:22 01:00:11:16 
*FROM CLIP NAME:  109/5-2 CAM A 
*ASC_SOP (1.0681 1.0463 1.0001)(0.0382 0.0380 0.0385)(0.9486 0.9733 0.9958) 
*ASC_SAT 1.0000
000006  A041_C001_0714YZ                 V     C        06:19:34:05 06:19:36:06 01:00:11:16 01:00:13:17 
*FROM CLIP NAME:  216/3-1 VFX CAM A 
*ASC_SOP (1.0896 1.0896 1.0896)(0.0299 0.0199 0.0137)(0.9451 0.9451 0.9451) 
*ASC_SAT 1.0600
000007  A041_C011_0714MB                 V     C        07:38:09:13 07:38:11:00 01:00:13:17 01:00:15:04 
*FROM CLIP NAME:  216/9-1
000008  A041_C001_0714YZ                 V     C        06:19:37:12 06:19:39:14 01:00:15:04 01:00:17:06 
*FROM CLIP NAME:  216/3-1 VFX CAM A 
*ASC_SOP (1.0896 1.0896 1.0896)(0.0299 0.0199 0.0137)(0.9451 0.9451 0.9451) 
*ASC_SAT 1.0600
000009  B032_C011_0714OA                 V     C        08:29:17:21 08:29:19:10 01:00:17:06 01:00:18:20 
*FROM CLIP NAME:  216/11-2 50 FPS CAM B 
*ASC_SOP (1.1190 1.1127 1.0988)(0.0847 0.0771 0.0704)(1.0740 1.0676 1.0744) 
*ASC_SAT 1.0000
000010  B032_C009_0714VL                 V     C        08:01:10:02 08:01:10:15 01:00:18:20 01:00:19:08 
*FROM CLIP NAME:  216/10-1 CAM B 
*ASC_SOP (1.1190 1.1127 1.0988)(0.0847 0.0771 0.0704)(1.0740 1.0676 1.0744) 
*ASC_SAT 1.0000
000011  A075_C012_073090                 V     C        09:30:18:02 09:30:22:09 01:00:19:08 01:00:23:15 
*FROM CLIP NAME:  223A/13-3 50FPS CAM A 
*ASC_SOP (0.9597 0.9428 0.9590)(0.0427 0.0427 0.0430)(0.9416 0.9473 0.9525) 
*ASC_SAT 1.0000
000012  A011_C026_0626JE                 V     C        07:30:55:20 07:31:01:22 01:00:23:15 01:00:29:17 
*FROM CLIP NAME:  225/7-1 50FPS VFX M 
*ASC_SOP (1.0268 1.0387 1.0639)(0.0217 0.0173 0.0292)(1.0335 1.0347 1.0473) 
*ASC_SAT 0.7820
000013  D003_C006_20200626_R1            V     C        02:55:26:10 02:56:17:09 01:00:29:17 01:01:20:16 
*FROM CLIP NAME:  225/11-6 
*ASC_SOP (1.2335 1.2348 1.2378)(-0.0382 -0.0382 -0.0383)(0.7683 0.7729 0.7763) 
*ASC_SAT 1.0000
000014  A043_C010_0715MG                 V     C        08:49:50:13 08:50:25:20 01:01:20:16 01:01:55:23 
*FROM CLIP NAME:  223A/4-1 PLATE VFX B 
*ASC_SOP (1.0337 1.0044 0.9843)(0.0000 0.0000 0.0000)(1.0896 1.0760 1.0601) 
*ASC_SAT 1.0000
000015  A043_C014_0715CX                 V     C        09:33:21:16 09:33:44:21 01:01:55:23 01:02:19:03 
*FROM CLIP NAME:  223A/6-1 PLATE VFX.SUB.01 
*ASC_SOP (1.0337 1.0044 0.9843)(0.0000 0.0000 0.0000)(1.0896 1.0760 1.0601) 
*ASC_SAT 1.0000
000016  A011_C023_06260P                 V     C        07:12:16:19 07:13:58:04 01:02:19:03 01:03:09:21 
*FROM CLIP NAME:  225/5-1 25 FPS VFX PLATE M 
*ASC_SOP (1.0268 1.0387 1.0639)(0.0217 0.0173 0.0292)(1.0335 1.0347 1.0473) 
*ASC_SAT 0.7820
000017  A011_C025_062673                 V     C        07:18:40:02 07:20:37:04 01:03:09:21 01:04:08:10 
*FROM CLIP NAME:  225/6-1 25 FPS VFX PLATE M 
*ASC_SOP (1.0268 1.0387 1.0639)(0.0217 0.0173 0.0292)(1.0335 1.0347 1.0473) 
*ASC_SAT 0.7820
000018  A012_C007_06265K                 V     C        08:21:54:22 08:22:37:24 01:04:08:10 01:04:51:12 
*FROM CLIP NAME:  225/10-1 25 FPS VFX PLATE 
*ASC_SOP (1.0000 1.0000 1.0000)(0.0000 0.0000 0.0000)(1.0000 1.0000 1.0000) 
*ASC_SAT 1.0000
*
* ============================================================
* Marker Metadata
* ------------------------------------------------------------
* 
* Sequence name: ZERO_102_NFLX_CUT1_20200918 ESTRAZIONE M74 AAF
* Number  Color   Marker Name              Start TC    End TC      Duration    Track  Part        Comment